<?xml version="1.0" standalone="no"?>
<!DOCTYPE svg PUBLIC "-//W3C//DTD SVG 20010904//EN"
 "http://www.w3.org/TR/2001/REC-SVG-20010904/DTD/svg10.dtd">
<svg version="1.0" xmlns="http://www.w3.org/2000/svg"
 width="800.000000pt" height="800.000000pt" viewBox="0 0 800.000000 800.000000"
 preserveAspectRatio="xMidYMid meet">

<g transform="translate(0.000000,800.000000) scale(0.100000,-0.100000)"
fill="#000000" stroke="none">
<path d="M3775 7994 c-170 -13 -296 -27 -410 -45 -476 -76 -933 -238 -1360
-482 -68 -39 -305 -190 -335 -214 -8 -6 -61 -47 -118 -91 -333 -257 -634 -579
-871 -932 -374 -556 -589 -1154 -663 -1840 -16 -148 -16 -632 0 -780 61 -564
221 -1078 482 -1547 98 -175 257 -411 386 -573 139 -174 431 -466 604 -604
620 -495 1321 -782 2120 -868 148 -16 632 -16 780 0 801 86 1497 371 2120 868
173 139 465 431 604 604 793 994 1068 2250 764 3489 -135 552 -408 1092 -789
1562 -124 153 -415 441 -569 565 -627 501 -1329 791 -2115 874 -104 11 -543
21 -630 14z m-1670 -1309 c166 -44 331 -174 408 -322 171 -329 43 -727 -288
-891 -189 -94 -425 -87 -605 18 -211 123 -330 329 -329 570 0 107 17 181 67
285 87 180 272 319 472 354 71 13 199 6 275 -14z m3595 -1711 c471 -82 748
-317 894 -754 37 -110 77 -294 97 -445 9 -64 13 -431 16 -1287 l4 -1198 -560
0 -560 0 -4 1053 c-3 1144 -3 1135 -61 1305 -87 257 -270 373 -566 358 -197
-9 -311 -54 -420 -165 -76 -77 -119 -153 -154 -274 -54 -185 -56 -237 -56
-1299 l0 -978 -560 0 -560 0 0 1810 0 1810 538 -2 537 -3 3 -242 c1 -134 6
-243 11 -243 4 0 13 11 19 25 35 76 164 221 265 298 169 130 348 204 582 243
106 18 407 11 535 -12z m-3200 -1874 l0 -1810 -560 0 -560 0 0 1810 0 1810
560 0 560 0 0 -1810z"/>
</g>
</svg>
