<svg version="1.0" xmlns="http://www.w3.org/2000/svg" width="1066.667" height="1066.667" viewBox="0 0 800 800"><path d="M377.5.6c-17 1.3-29.6 2.7-41 4.5-47.6 7.6-93.3 23.8-136 48.2-6.8 3.9-30.5 19-33.5 21.4-.8.6-6.1 4.7-11.8 9.1-33.3 25.7-63.4 57.9-87.1 93.2C30.7 232.6 9.2 292.4 1.8 361c-1.6 14.8-1.6 63.2 0 78C7.9 495.4 23.9 546.8 50 593.7c9.8 17.5 25.7 41.1 38.6 57.3 13.9 17.4 43.1 46.6 60.4 60.4 62 49.5 132.1 78.2 212 86.8 14.8 1.6 63.2 1.6 78 0 80.1-8.6 149.7-37.1 212-86.8 17.3-13.9 46.5-43.1 60.4-60.4 79.3-99.4 106.8-225 76.4-348.9-13.5-55.2-40.8-109.2-78.9-156.2-12.4-15.3-41.5-44.1-56.9-56.5C589.3 39.3 519.1 10.3 440.5 2 430.1.9 386.2-.1 377.5.6zm-167 130.9c16.6 4.4 33.1 17.4 40.8 32.2 17.1 32.9 4.3 72.7-28.8 89.1-18.9 9.4-42.5 8.7-60.5-1.8-21.1-12.3-33-32.9-32.9-57 0-10.7 1.7-18.1 6.7-28.5 8.7-18 27.2-31.9 47.2-35.4 7.1-1.3 19.9-.6 27.5 1.4zM570 302.6c47.1 8.2 74.8 31.7 89.4 75.4 3.7 11 7.7 29.4 9.7 44.5.9 6.4 1.3 43.1 1.6 128.7l.4 119.8h-112l-.4-105.3c-.3-114.4-.3-113.5-6.1-130.5-8.7-25.7-27-37.3-56.6-35.8-19.7.9-31.1 5.4-42 16.5-7.6 7.7-11.9 15.3-15.4 27.4-5.4 18.5-5.6 23.7-5.6 129.9V671H321V309l53.8.2 53.7.3.3 24.2c.1 13.4.6 24.3 1.1 24.3.4 0 1.3-1.1 1.9-2.5 3.5-7.6 16.4-22.1 26.5-29.8 16.9-13 34.8-20.4 58.2-24.3 10.6-1.8 40.7-1.1 53.5 1.2zM250 490v181H138V309h112v181z"/></svg>